<svg width="172" height="18" viewBox="0 0 172 18" fill="none" xmlns="http://www.w3.org/2000/svg">
<path d="M169.056 0.502819V17.3004H171.455V0.502819H169.056ZM156.554 0.502819L148.947 17.3004H151.418L157.729 2.93874L164.04 17.3004H166.56L158.929 0.502819H156.554ZM137.379 1.5568C136.01 0.852579 134.429 0.5 132.637 0.5H125.553V2.58936H127.954H129.379H132.493C133.885 2.58936 135.09 2.85304 136.106 3.38153C137.123 3.90984 137.911 4.6462 138.471 5.59061C139.031 6.53521 139.312 7.63956 139.312 8.90406C139.312 10.1527 139.031 11.2533 138.471 12.2055C137.911 13.1581 137.123 13.8983 136.106 14.4266C135.09 14.9551 133.885 15.2191 132.493 15.2191H127.954V7.90493H125.553V17.3079H132.637C134.429 17.3079 136.01 16.9558 137.379 16.2513C138.747 15.5471 139.812 14.5626 140.573 13.2982C141.332 12.0338 141.713 10.569 141.713 8.90406C141.713 7.23943 141.332 5.77461 140.573 4.51032C139.812 3.24584 138.747 2.2614 137.379 1.5568ZM145.123 14.1625C144.674 14.1625 144.29 14.3147 143.97 14.6186C143.65 14.9231 143.489 15.3149 143.489 15.7952C143.489 16.2754 143.65 16.6719 143.97 16.9837C144.29 17.2958 144.674 17.4518 145.123 17.4518C145.555 17.4518 145.927 17.2958 146.239 16.9837C146.551 16.6719 146.707 16.2754 146.707 15.7952C146.707 15.3149 146.551 14.9231 146.239 14.6186C145.927 14.3147 145.555 14.1625 145.123 14.1625ZM113.692 0.5H111.291V17.3079H122.792V15.2191H113.692V0.5ZM103.847 17.3079H106.248V0.5H103.847V17.3079ZM96.5959 9.96065C96.5959 11.8335 96.1838 13.2021 95.3593 14.0666C94.5349 14.931 93.3626 15.363 91.8417 15.363C90.3372 15.363 89.1724 14.931 88.3484 14.0666C87.5236 13.2021 87.1118 11.8335 87.1118 9.96065V0.5H84.7106V10.0565C84.7106 12.49 85.3427 14.3388 86.6075 15.603C87.8718 16.8679 89.609 17.5 91.8177 17.5C94.0425 17.5 95.7834 16.8679 97.04 15.603C98.2966 14.3388 98.9253 12.49 98.9253 10.0565V0.5H96.5959V9.96065ZM78.7346 8.88319C78.4884 8.76419 78.2251 8.67948 77.9533 8.60297C77.9618 8.60297 77.9787 8.59446 77.9872 8.59446C78.6752 8.25469 79.2272 7.7792 79.6349 7.15053C80.0427 6.5307 80.2464 5.75769 80.2464 4.84899C80.2464 3.49862 79.7285 2.44539 78.6837 1.66411C77.6391 0.891108 76.1529 0.500565 74.2163 0.500565H66.6745V2.44539H74.0041C75.2186 2.44539 76.1613 2.66622 76.8323 3.11635C77.5032 3.56647 77.843 4.23742 77.843 5.13767C77.843 6.02964 77.5032 6.70041 76.8323 7.15053C76.1613 7.60066 75.2186 7.82149 74.0041 7.82149H66.6745V9.76652H74.5986C75.932 9.76652 76.951 9.99581 77.6476 10.4375C78.3525 10.8876 78.7092 11.601 78.7092 12.5777C78.7092 13.5373 78.3525 14.2424 77.6476 14.6925C76.951 15.1426 75.932 15.3634 74.5986 15.3634H66.6745V17.3082H74.7004C76.8238 17.3082 78.4288 16.9092 79.5161 16.1194C80.5947 15.3294 81.1296 14.2084 81.1296 12.773C81.1296 11.8134 80.9174 11.0066 80.4842 10.3525C80.0512 9.70693 79.4651 9.21452 78.7346 8.88319ZM50.1589 2.58936H55.9212V17.3079H58.2987V2.58936H64.061V0.5H50.1589V2.58936ZM45.6966 11.4991C46.7327 11.0319 47.5311 10.361 48.0917 9.49474C48.6522 8.61987 48.9324 7.57528 48.9324 6.3608C48.9324 5.14631 48.6522 4.09308 48.0917 3.20975C47.5311 2.33507 46.7327 1.66411 45.6966 1.19689C44.652 0.729853 43.395 0.500565 41.9257 0.500565H35.369V2.58973H41.8492C43.3864 2.58973 44.5499 2.92107 45.3483 3.57493C46.1382 4.22897 46.5374 5.15477 46.5374 6.3608C46.5374 7.55837 46.1382 8.4924 45.3483 9.1549C44.5499 9.8174 43.3864 10.1486 41.8492 10.1486H35.369V17.3082H37.7726V12.1955H41.9257C42.2909 12.1955 42.6476 12.1786 42.9874 12.153L46.6053 17.3082H49.2213L45.2295 11.6689C45.3823 11.6095 45.5438 11.567 45.6966 11.4991ZM19.2831 17.3082H31.4791V15.2191H19.2831V17.3082ZM31.1395 0.500565H19.2831V2.58973H31.1395V0.500565ZM30.1118 7.75364H19.2831V9.79186H30.1118V7.75364ZM14.7426 0.5H17.1438L9.77243 17.3079H7.39531L0 0.5H2.59317L8.64661 14.3179L14.7426 0.5Z" fill="url(#paint0_linear_337_32761)"/>
<defs>
<linearGradient id="paint0_linear_337_32761" x1="0" y1="9.00007" x2="171.456" y2="9.00007" gradientUnits="userSpaceOnUse">
<stop stop-color="#346DBF"/>
<stop offset="0.00446955" stop-color="#346DBF"/>
<stop offset="1" stop-color="#7FCC2A"/>
</linearGradient>
</defs>
</svg>
